# xmcd CD database file
#
# Track frame offsets:
#	150
#	13605
#	28252
#	53287
#	68862
#	79822
#	93949
#	122151
#	141455
#	155238
#	170963
#	190552
#	204742
#	222729
#	251453
#	278031
#	294429
#	315528
#
# Disc length: 4555 seconds
#
# Revision: 0
# Processed by: cddbd v1.5.2PL0 Copyright (c) Steve Scherf et al.
# Submitted via: CDex 1.51
#
DISCID=1011c912
DTITLE=Various Artist - Latin Hot
DYEAR=2007
DGENRE=Salsa
TTITLE0=Tito Puente - Fat Mama
TTITLE1=Mongo Santamaria - Lady Marmalade
TTITLE2=Joe Cuba - El Pito
TTITLE3=Eddie Palmieri - Ay Que Rico
TTITLE4=Richie Ray and Bobby Cruz - Nitty Gritty
TTITLE5=La Lupe - Saraycoco
TTITLE6=Charlie Palmieri - Either You Have It Or You Don't
TTITLE7=Joey Pastrana - King Of Latin Soul
TTITLE8=Bobby Valentin - Use It Before You Lose It
TTITLE9=Alfredito - Guajira With Boogaloo
TTITLE10=New Swing Sextet - Monkey See Monkey Do
TTITLE11=Seguida - Mambo Rock (Theme From 'Salsa')
TTITLE12=The Latinaires - Afro Shingaling
TTITLE13=Johnny Colon - Merecumbe
TTITLE14=Joe Bataan - Shaft
TTITLE15=Monguito Santamaria - Chango
TTITLE16=Lebron Brothers - Summertime Blues
TTITLE17=Celia Cruz - Nadie Se Salva De La Rumba
EXTD=YEAR: 2007
EXTT0=
EXTT1=
EXTT2=
EXTT3=
EXTT4=
EXTT5=
EXTT6=
EXTT7=
EXTT8=
EXTT9=
EXTT10=
EXTT11=
EXTT12=
EXTT13=
EXTT14=
EXTT15=
EXTT16=
EXTT17=
PLAYORDER=
